<?xml version="1.0" encoding="UTF-8" standalone="no"?>
<svg
   xmlns:dc="http://purl.org/dc/elements/1.1/"
   xmlns:cc="http://creativecommons.org/ns#"
   xmlns:rdf="http://www.w3.org/1999/02/22-rdf-syntax-ns#"
   xmlns:svg="http://www.w3.org/2000/svg"
   xmlns="http://www.w3.org/2000/svg"
   xmlns:sodipodi="http://sodipodi.sourceforge.net/DTD/sodipodi-0.dtd"
   xmlns:inkscape="http://www.inkscape.org/namespaces/inkscape"
   width="106.66588pt"
   height="25.422163pt"
   viewBox="0 0 106.66588 25.422162"
   version="1.2"
   id="svg2"
   inkscape:version="0.91 r13725"
   sodipodi:docname="pmp4.svg">
  <metadata
     id="metadata9256">
    <rdf:RDF>
      <cc:Work
         rdf:about="">
        <dc:format>image/svg+xml</dc:format>
        <dc:type
           rdf:resource="http://purl.org/dc/dcmitype/StillImage" />
        <dc:title></dc:title>
      </cc:Work>
    </rdf:RDF>
  </metadata>
  <sodipodi:namedview
     pagecolor="#ffffff"
     bordercolor="#666666"
     borderopacity="1"
     objecttolerance="10"
     gridtolerance="10"
     guidetolerance="10"
     inkscape:pageopacity="0"
     inkscape:pageshadow="2"
     inkscape:window-width="1855"
     inkscape:window-height="1056"
     id="namedview9254"
     showgrid="false"
     fit-margin-top="0"
     fit-margin-left="0"
     fit-margin-right="0"
     fit-margin-bottom="0"
     inkscape:zoom="5.3940105"
     inkscape:cx="83.49863"
     inkscape:cy="-15.799058"
     inkscape:window-x="65"
     inkscape:window-y="24"
     inkscape:window-maximized="1"
     inkscape:current-layer="svg2" />
  <defs
     id="defs4" />
  <g
     id="g3951"
     transform="translate(6.093273,-6.1247087)">
    <g
       transform="translate(-13.051513,0.59325066)"
       id="g3939">
      <path
         inkscape:connector-curvature="0"
         id="path5798"
         d="m 11.73964,28.164413 c 0,-1.101562 -0.89063,-1.992188 -1.99219,-1.992188 -1.10156,0 -1.99219,0.890626 -1.99219,1.992188 0,1.101563 0.89063,1.992188 1.99219,1.992188 1.10156,0 1.99219,-0.890625 1.99219,-1.992188 z m 0,0"
         style="fill:none;stroke:#000000;stroke-width:1.59404004;stroke-linecap:butt;stroke-linejoin:miter;stroke-miterlimit:10;stroke-opacity:1" />
      <path
         inkscape:connector-curvature="0"
         id="path5800"
         d="m 31.58339,8.320662 c 0,-1.101562 -0.89063,-1.992187 -1.99219,-1.992187 -1.10156,0 -1.99219,0.890625 -1.99219,1.992187 0,1.101563 0.89063,1.992188 1.99219,1.992188 1.10156,0 1.99219,-0.890625 1.99219,-1.992188 z m 0,0"
         style="fill:none;stroke:#000000;stroke-width:1.59404004;stroke-linecap:butt;stroke-linejoin:miter;stroke-miterlimit:10;stroke-opacity:1" />
      <path
         inkscape:connector-curvature="0"
         id="path5802"
         d="m 11.73964,8.320662 c 0,-1.101562 -0.89063,-1.992187 -1.99219,-1.992187 -1.10156,0 -1.99219,0.890625 -1.99219,1.992187 0,1.101563 0.89063,1.992188 1.99219,1.992188 1.10156,0 1.99219,-0.890625 1.99219,-1.992188 z m 0,0"
         style="fill:none;stroke:#000000;stroke-width:1.59404004;stroke-linecap:butt;stroke-linejoin:miter;stroke-miterlimit:10;stroke-opacity:1" />
      <path
         inkscape:connector-curvature="0"
         id="path5804"
         d="m 31.58339,28.164413 c 0,-1.101562 -0.89063,-1.992188 -1.99219,-1.992188 -1.10156,0 -1.99219,0.890626 -1.99219,1.992188 0,1.101563 0.89063,1.992188 1.99219,1.992188 1.10156,0 1.99219,-0.890625 1.99219,-1.992188 z m 0,0"
         style="fill:none;stroke:#000000;stroke-width:1.59404004;stroke-linecap:butt;stroke-linejoin:miter;stroke-miterlimit:10;stroke-opacity:1" />
      <path
         inkscape:connector-curvature="0"
         id="path5806"
         d="M 11.72011,26.191757 26.91542,10.996444"
         style="fill:none;stroke:#7f7fff;stroke-width:1.59404004;stroke-linecap:butt;stroke-linejoin:miter;stroke-miterlimit:10;stroke-opacity:1" />
      <path
         inkscape:connector-curvature="0"
         id="path5808"
         d="m 9.74745,25.37535 0,-13.269531"
         style="fill:none;stroke:#000000;stroke-width:0.79701;stroke-linecap:butt;stroke-linejoin:miter;stroke-miterlimit:10;stroke-dasharray:2.98883, 2.98883;stroke-opacity:1" />
      <path
         inkscape:connector-curvature="0"
         id="path5810"
         d="m 12.53651,28.164413 13.26954,0"
         style="fill:none;stroke:#000000;stroke-width:0.79701;stroke-linecap:butt;stroke-linejoin:miter;stroke-miterlimit:10;stroke-dasharray:2.98883, 2.98883;stroke-opacity:1" />
      <path
         inkscape:connector-curvature="0"
         id="path5812"
         d="m 26.80214,8.320662 -13.26953,0"
         style="fill:none;stroke:#000000;stroke-width:0.79701;stroke-linecap:butt;stroke-linejoin:miter;stroke-miterlimit:10;stroke-dasharray:2.98883, 2.98883;stroke-opacity:1" />
      <path
         inkscape:connector-curvature="0"
         id="path5814"
         d="m 29.5912,11.109725 0,13.269532"
         style="fill:none;stroke:#000000;stroke-width:0.79701;stroke-linecap:butt;stroke-linejoin:miter;stroke-miterlimit:10;stroke-dasharray:2.98883, 2.98883;stroke-opacity:1" />
      <path
         inkscape:connector-curvature="0"
         id="path5816"
         d="M 11.72011,10.293319 26.91542,25.488632"
         style="fill:none;stroke:#7f7fff;stroke-width:1.59404004;stroke-linecap:butt;stroke-linejoin:miter;stroke-miterlimit:10;stroke-opacity:1" />
    </g>
    <g
       transform="translate(-20.913058,0.59325066)"
       id="g3927">
      <path
         inkscape:connector-curvature="0"
         id="path5826"
         d="m 60.22402,28.164413 c 0,-1.101562 -0.89063,-1.992188 -1.99219,-1.992188 -1.10156,0 -1.99219,0.890626 -1.99219,1.992188 0,1.101563 0.89063,1.992188 1.99219,1.992188 1.10156,0 1.99219,-0.890625 1.99219,-1.992188 z m 0,0"
         style="fill:none;stroke:#000000;stroke-width:1.59404004;stroke-linecap:butt;stroke-linejoin:miter;stroke-miterlimit:10;stroke-opacity:1" />
      <path
         inkscape:connector-curvature="0"
         id="path5828"
         d="m 80.06777,8.320662 c 0,-1.101562 -0.89454,-1.992187 -1.99219,-1.992187 -1.10156,0 -1.99219,0.890625 -1.99219,1.992187 0,1.101563 0.89063,1.992188 1.99219,1.992188 1.09765,0 1.99219,-0.890625 1.99219,-1.992188 z m 0,0"
         style="fill:none;stroke:#000000;stroke-width:1.59404004;stroke-linecap:butt;stroke-linejoin:miter;stroke-miterlimit:10;stroke-opacity:1" />
      <path
         inkscape:connector-curvature="0"
         id="path5830"
         d="m 60.22402,8.320662 c 0,-1.101562 -0.89063,-1.992187 -1.99219,-1.992187 -1.10156,0 -1.99219,0.890625 -1.99219,1.992187 0,1.101563 0.89063,1.992188 1.99219,1.992188 1.10156,0 1.99219,-0.890625 1.99219,-1.992188 z m 0,0"
         style="fill:none;stroke:#000000;stroke-width:1.59404004;stroke-linecap:butt;stroke-linejoin:miter;stroke-miterlimit:10;stroke-opacity:1" />
      <path
         inkscape:connector-curvature="0"
         id="path5832"
         d="m 80.06777,28.164413 c 0,-1.101562 -0.89454,-1.992188 -1.99219,-1.992188 -1.10156,0 -1.99219,0.890626 -1.99219,1.992188 0,1.101563 0.89063,1.992188 1.99219,1.992188 1.09765,0 1.99219,-0.890625 1.99219,-1.992188 z m 0,0"
         style="fill:none;stroke:#000000;stroke-width:1.59404004;stroke-linecap:butt;stroke-linejoin:miter;stroke-miterlimit:10;stroke-opacity:1" />
      <path
         inkscape:connector-curvature="0"
         id="path5834"
         d="M 60.20448,26.191757 75.39589,10.996444"
         style="fill:none;stroke:#000000;stroke-width:0.79701;stroke-linecap:butt;stroke-linejoin:miter;stroke-miterlimit:10;stroke-dasharray:2.98883, 2.98883;stroke-opacity:1" />
      <path
         inkscape:connector-curvature="0"
         id="path5836"
         d="m 58.23183,25.37535 0,-13.269531"
         style="fill:none;stroke:#7f7fff;stroke-width:1.59404004;stroke-linecap:butt;stroke-linejoin:miter;stroke-miterlimit:10;stroke-opacity:1" />
      <path
         inkscape:connector-curvature="0"
         id="path5838"
         d="m 61.02089,28.164413 13.26953,0"
         style="fill:none;stroke:#000000;stroke-width:0.79701;stroke-linecap:butt;stroke-linejoin:miter;stroke-miterlimit:10;stroke-dasharray:2.98883, 2.98883;stroke-opacity:1" />
      <path
         inkscape:connector-curvature="0"
         id="path5840"
         d="m 75.28652,8.320662 -13.26954,0"
         style="fill:none;stroke:#000000;stroke-width:0.79701;stroke-linecap:butt;stroke-linejoin:miter;stroke-miterlimit:10;stroke-dasharray:2.98883, 2.98883;stroke-opacity:1" />
      <path
         inkscape:connector-curvature="0"
         id="path5842"
         d="m 78.07558,11.109725 0,13.269532"
         style="fill:none;stroke:#7f7fff;stroke-width:1.59404004;stroke-linecap:butt;stroke-linejoin:miter;stroke-miterlimit:10;stroke-opacity:1" />
      <path
         inkscape:connector-curvature="0"
         id="path5844"
         d="M 60.20448,10.293319 75.3998,25.488632"
         style="fill:none;stroke:#000000;stroke-width:0.79701;stroke-linecap:butt;stroke-linejoin:miter;stroke-miterlimit:10;stroke-dasharray:2.98883, 2.98883;stroke-opacity:1" />
    </g>
    <g
       transform="translate(-28.772654,0.59325066)"
       id="g3915">
      <path
         inkscape:connector-curvature="0"
         id="path5854"
         d="m 108.70839,28.164413 c 0,-1.101562 -0.89453,-1.992188 -1.99219,-1.992188 -1.10156,0 -1.99218,0.890626 -1.99218,1.992188 0,1.101563 0.89062,1.992188 1.99218,1.992188 1.09766,0 1.99219,-0.890625 1.99219,-1.992188 z m 0,0"
         style="fill:none;stroke:#000000;stroke-width:1.59404004;stroke-linecap:butt;stroke-linejoin:miter;stroke-miterlimit:10;stroke-opacity:1" />
      <path
         inkscape:connector-curvature="0"
         id="path5856"
         d="m 128.54824,8.320662 c 0,-1.101562 -0.89063,-1.992187 -1.99219,-1.992187 -1.09766,0 -1.99219,0.890625 -1.99219,1.992187 0,1.101563 0.89453,1.992188 1.99219,1.992188 1.10156,0 1.99219,-0.890625 1.99219,-1.992188 z m 0,0"
         style="fill:none;stroke:#000000;stroke-width:1.59404004;stroke-linecap:butt;stroke-linejoin:miter;stroke-miterlimit:10;stroke-opacity:1" />
      <path
         inkscape:connector-curvature="0"
         id="path5858"
         d="m 108.70839,8.320662 c 0,-1.101562 -0.89453,-1.992187 -1.99219,-1.992187 -1.10156,0 -1.99218,0.890625 -1.99218,1.992187 0,1.101563 0.89062,1.992188 1.99218,1.992188 1.09766,0 1.99219,-0.890625 1.99219,-1.992188 z m 0,0"
         style="fill:none;stroke:#000000;stroke-width:1.59404004;stroke-linecap:butt;stroke-linejoin:miter;stroke-miterlimit:10;stroke-opacity:1" />
      <path
         inkscape:connector-curvature="0"
         id="path5860"
         d="m 128.54824,28.164413 c 0,-1.101562 -0.89063,-1.992188 -1.99219,-1.992188 -1.09766,0 -1.99219,0.890626 -1.99219,1.992188 0,1.101563 0.89453,1.992188 1.99219,1.992188 1.10156,0 1.99219,-0.890625 1.99219,-1.992188 z m 0,0"
         style="fill:none;stroke:#000000;stroke-width:1.59404004;stroke-linecap:butt;stroke-linejoin:miter;stroke-miterlimit:10;stroke-opacity:1" />
      <path
         inkscape:connector-curvature="0"
         id="path5862"
         d="M 108.68886,26.191757 123.88027,10.996444"
         style="fill:none;stroke:#000000;stroke-width:0.79701;stroke-linecap:butt;stroke-linejoin:miter;stroke-miterlimit:10;stroke-dasharray:2.98883, 2.98883;stroke-opacity:1" />
      <path
         inkscape:connector-curvature="0"
         id="path5864"
         d="m 106.7162,25.37535 0,-13.269531"
         style="fill:none;stroke:#000000;stroke-width:0.79701;stroke-linecap:butt;stroke-linejoin:miter;stroke-miterlimit:10;stroke-dasharray:2.98883, 2.98883;stroke-opacity:1" />
      <path
         inkscape:connector-curvature="0"
         id="path5866"
         d="m 109.50527,28.164413 13.26562,0"
         style="fill:none;stroke:#7f7fff;stroke-width:1.59404004;stroke-linecap:butt;stroke-linejoin:miter;stroke-miterlimit:10;stroke-opacity:1" />
      <path
         inkscape:connector-curvature="0"
         id="path5868"
         d="m 123.76699,8.320662 -13.26563,0"
         style="fill:none;stroke:#7f7fff;stroke-width:1.59404004;stroke-linecap:butt;stroke-linejoin:miter;stroke-miterlimit:10;stroke-opacity:1" />
      <path
         inkscape:connector-curvature="0"
         id="path5870"
         d="m 126.55605,11.109725 0,13.269532"
         style="fill:none;stroke:#000000;stroke-width:0.79701;stroke-linecap:butt;stroke-linejoin:miter;stroke-miterlimit:10;stroke-dasharray:2.98883, 2.98883;stroke-opacity:1" />
      <path
         inkscape:connector-curvature="0"
         id="path5872"
         d="m 108.68886,10.293319 15.19141,15.195313"
         style="fill:none;stroke:#000000;stroke-width:0.79701;stroke-linecap:butt;stroke-linejoin:miter;stroke-miterlimit:10;stroke-dasharray:2.98883, 2.98883;stroke-opacity:1" />
    </g>
  </g>
</svg>
